<?xml version="1.0" encoding="utf-8"?>
<!-- Generator: Adobe Illustrator 25.1.0, SVG Export Plug-In . SVG Version: 6.00 Build 0)  -->
<svg version="1.1" id="Layer_1" xmlns="http://www.w3.org/2000/svg" xmlns:xlink="http://www.w3.org/1999/xlink" x="0px" y="0px"
	 viewBox="0 0 190.8 62.2" style="enable-background:new 0 0 190.8 62.2;" xml:space="preserve">
<style type="text/css">
	.st0{fill:#ADADAD;}
	.st1{fill-rule:evenodd;clip-rule:evenodd;fill:#ADADAD;}
</style>
<g>
	<path class="st0" d="M86.7,32.1c3.9,1.1,5.8,4,5.8,8.6c0,2.9-0.9,5.2-2.8,6.9c-1.9,1.7-4.6,2.5-8.2,2.5H68.7
		c-0.8,0-1.4-0.6-1.4-1.4v-31c0-0.8,0.6-1.4,1.4-1.4h12.6c3.4,0,5.9,0.7,7.7,2.2s2.6,3.6,2.6,6.3C91.5,28.3,89.9,30.7,86.7,32.1z
		 M87.5,25.4c0-1.8-0.5-3.1-1.5-4c-1-0.9-2.7-1.4-5.1-1.4h-9.5v10.7h9.4c2.4,0,4.2-0.5,5.2-1.4C87,28.4,87.5,27.1,87.5,25.4z
		 M81.5,46.2c4.7,0,7.1-1.9,7.1-5.8c0-2-0.6-3.5-1.7-4.5c-1.1-1-3-1.5-5.5-1.5h-10v11.8H81.5z"/>
	<path class="st0" d="M143.6,50.5c-3.9,0-7.2-1.3-9.8-3.9c-2.6-2.6-3.9-5.9-3.9-9.9s1.3-7.2,3.9-9.9c2.6-2.6,5.9-3.9,9.8-3.9
		c3.2,0,5.9,0.9,8.3,2.7c2.1,1.5,3.5,3.5,4.3,5.9c0.2,0.6-0.3,1.2-0.9,1.2H153c-0.4,0-0.7-0.2-0.9-0.6c-0.6-1.6-1.7-2.9-3.1-3.8
		c-1.6-1.1-3.4-1.6-5.5-1.6c-2.8,0-5.1,0.9-6.9,2.8c-1.8,1.9-2.7,4.3-2.7,7.2c0,2.9,0.9,5.3,2.7,7.2c1.8,1.9,4.1,2.8,6.9,2.8
		c2.1,0,3.9-0.5,5.4-1.6c1.3-0.9,2.3-2.2,3-3.7c0.2-0.5,0.7-0.8,1.2-0.8h1.5c0.9,0,1.5,0.9,1.2,1.8c-0.8,2.2-2.2,4-4.1,5.4
		C149.5,49.7,146.8,50.5,143.6,50.5z"/>
	<path class="st0" d="M184.4,50H181c-0.3,0-0.6-0.1-0.8-0.3l-13.9-12.5V49c0,0.6-0.5,1-1,1h-1.9c-0.6,0-1-0.5-1-1V13.9
		c0-0.6,0.5-1,1-1h1.9c0.6,0,1,0.5,1,1v21.4L179,23.8c0.2-0.2,0.5-0.3,0.8-0.3h3.3c0.5,0,0.8,0.6,0.4,1l-12.9,11.6l14.1,13
		C185.1,49.4,184.9,50,184.4,50z"/>
</g>
<g>
	<path class="st0" d="M27.4,53.9C15.8,53,6.6,43.2,6.6,31.4S15.8,9.8,27.4,8.9V5.3C13.8,6.2,3,17.6,3,31.4s10.8,25.2,24.4,26.1V53.9
		z"/>
	<path class="st0" d="M30.9,5.3v3.6c11.6,0.9,20.8,10.6,20.8,22.5S42.6,53,30.9,53.9v3.6c13.6-0.9,24.4-12.3,24.4-26.1
		S44.5,6.2,30.9,5.3z"/>
</g>
<g>
	<path class="st1" d="M108.2,46.6c-4.3-0.9-7.6-5-7.6-9.9c0-4.9,3.3-9,7.6-9.9v-3.9C101.9,23.9,97,29.7,97,36.7
		c0,7.1,4.9,12.9,11.2,13.8V46.6z"/>
	<path class="st1" d="M122.8,23.3h-2.7c-0.4,0-0.7,0.3-0.7,0.7v3.2c-2-2.2-4.6-3.8-7.6-4.2v3.9c4.3,0.9,7.6,5,7.6,9.9
		c0,4.9-3.3,9-7.6,9.9v3.9c3-0.4,5.6-2,7.6-4.2v3.2c0,0.4,0.3,0.7,0.7,0.7h2.7c0.4,0,0.7-0.3,0.7-0.7V24
		C123.5,23.6,123.2,23.3,122.8,23.3z"/>
</g>
<path class="st0" d="M22.2,28.3l3.5-3.5c0.5-0.5,0.5-1.4,0-1.9l-1.5-1.5c-0.5-0.5-1.4-0.5-1.9,0l-8.5,8.5c-0.5,0.5-0.5,1.4,0,1.9
	l8.5,8.5c0.5,0.5,1.4,0.5,1.9,0l1.5-1.5c0.5-0.5,0.5-1.4,0-1.9l-3.5-3.5h21.4c0.7,0,1.4-0.6,1.4-1.4v-2.2c0-0.7-0.6-1.4-1.4-1.4
	L22.2,28.3z"/>
</svg>
