<?xml version="1.0" encoding="utf-8"?>
<!-- Generator: Adobe Illustrator 25.0.1, SVG Export Plug-In . SVG Version: 6.00 Build 0)  -->
<svg version="1.1" id="Layer_1" xmlns="http://www.w3.org/2000/svg" xmlns:xlink="http://www.w3.org/1999/xlink" x="0px" y="0px"
	 viewBox="0 0 366.1 62.2" style="enable-background:new 0 0 366.1 62.2;" xml:space="preserve">
<style type="text/css">
	.st0{fill-rule:evenodd;clip-rule:evenodd;fill:#ADADAD;}
	.st1{fill:#ADADAD;}
</style>
<path class="st0" d="M62.2,35.8c-0.3,0-0.6,0.3-0.6,0.6c0.3,6.2,5.1,11.1,10.9,11.1c6,0,10.9-5.2,10.9-11.7V17.6
	c0-0.3-0.3-0.6-0.6-0.6H81c-0.3,0-0.6,0.3-0.6,0.6v18.3c0,4.7-3.5,8.5-7.9,8.5c-4.2,0-7.6-3.5-7.9-7.9c0-0.3-0.3-0.6-0.6-0.6H62.2z"
	/>
<path class="st0" d="M294,47.1h-1.4c-0.6,0-1-0.4-1-1V25.6c0-0.6,0.4-1,1-1h1.4c0.6,0,1,0.4,1,1v20.5C295,46.6,294.6,47.1,294,47.1z
	"/>
<path class="st0" d="M177.3,17.6v10.7c-2-2.5-5-4.2-8.3-4.2c-6,0-10.9,5.2-10.9,11.7S163,47.5,169,47.5c3.3,0,6.3-1.6,8.3-4.2v3.2
	c0,0.3,0.3,0.6,0.6,0.6h2.3c0.3,0,0.6-0.3,0.6-0.6v-29c0-0.3-0.3-0.6-0.6-0.6h-2.3C177.6,17,177.3,17.2,177.3,17.6z M169,44.3
	c-4.4,0-7.9-3.8-7.9-8.5s3.5-8.5,7.9-8.5c4.4,0,7.9,3.8,7.9,8.5S173.4,44.3,169,44.3z"/>
<path class="st0" d="M127.6,24.1c-2.9,0-5.6,1.2-7.5,3.2v-2.2c0-0.3-0.3-0.6-0.6-0.6h-2.3c-0.3,0-0.6,0.3-0.6,0.6v21.4
	c0,0.3,0.3,0.6,0.6,0.6h2.3c0.3,0,0.6-0.3,0.6-0.6V33.3c1-3.5,4-6,7.5-6c0.4,0,0.8,0,1.2,0.1c0.3,0.1,0.7-0.2,0.7-0.6v-2.1
	c0-0.3-0.2-0.5-0.5-0.6C128.5,24.2,128,24.1,127.6,24.1z"/>
<path class="st0" d="M219.3,47.1h2.8c0.5,0,0.7-0.6,0.4-0.9l-8.4-10.5c4.3-0.7,7.5-4.6,7.5-9.3c0-5.2-4-9.4-9-9.4h-9h-1h-1.8
	c-0.3,0-0.6,0.3-0.6,0.6v29c0,0.3,0.3,0.6,0.6,0.6h2.3c0.3,0,0.6-0.3,0.6-0.6V36.1c0-0.2,0.1-0.3,0.3-0.3h5.9c0.1,0,0.2,0,0.2,0.1
	l8.7,10.9C218.9,47,219.1,47.1,219.3,47.1z M203.6,20.3c0-0.2,0.1-0.3,0.3-0.3h8.5c3.3,0,6.1,2.8,6.1,6.3c0,3.5-2.7,6.3-6.1,6.3
	h-8.5c-0.2,0-0.3-0.1-0.3-0.3V20.3z"/>
<path class="st0" d="M276.7,24.1c-3.1,0-5.7,1.5-7.4,3.7c-1.6-2.2-4.3-3.7-7.4-3.7c-2.2,0-4.8,1.2-5.7,2.8v-1.8
	c0-0.3-0.3-0.6-0.6-0.6h-2.3c-0.3,0-0.6,0.3-0.6,0.6v21.4c0,0.3,0.3,0.6,0.6,0.6h2.3c0.3,0,0.6-0.3,0.6-0.6V32.8h0
	c0-3,2.5-5.4,5.7-5.4s5.7,2.4,5.7,5.4v13.7c0,0.3,0.3,0.6,0.6,0.6h2.3c0.3,0,0.6-0.3,0.6-0.6V32.8h0c0-3,2.5-5.4,5.7-5.4
	s5.7,2.4,5.7,5.4v13.7c0,0.3,0.3,0.6,0.6,0.6h2.3c0.3,0,0.6-0.3,0.6-0.6V32.8C285.8,28,281.7,24.1,276.7,24.1z"/>
<circle class="st0" cx="293.3" cy="19.2" r="2.3"/>
<path class="st0" d="M360,24.6h-17.6c-0.3,0-0.6,0.3-0.6,0.6v2.2c0,0.3,0.3,0.6,0.6,0.6h12.9c0.2,0,0.4,0.3,0.2,0.5l-13.6,15.2
	c0,0.1-0.1,0.1-0.1,0.2v3c0,0.2,0.1,0.3,0.3,0.3h17.6c0.3,0,0.6-0.3,0.6-0.6v-2.2c0-0.3-0.3-0.6-0.6-0.6h-12.8
	c-0.2,0-0.4-0.3-0.2-0.5L360.2,28c0-0.1,0.1-0.1,0.1-0.2v-3C360.2,24.7,360.1,24.6,360,24.6z"/>
<path class="st0" d="M153.9,35.8c0-6.5-5.1-11.7-11.4-11.7c-6.3,0-11.4,5.2-11.4,11.7s5.1,11.7,11.4,11.7c4.4,0,8.2-2.6,10.1-6.3
	c0.2-0.4-0.1-0.8-0.5-0.8h-2.4c-0.2,0-0.4,0.1-0.5,0.3c-1.5,2.2-4,3.7-6.8,3.7c-4.2,0-7.7-3.3-8.1-7.5h16.3h2.7
	c0.3,0,0.6-0.2,0.6-0.5C153.9,36.1,153.9,35.9,153.9,35.8z M142.5,27.3c3.8,0,7,2.7,7.9,6.3h-15.9C135.5,30,138.7,27.3,142.5,27.3z"
	/>
<path class="st0" d="M311.8,24.1c-2.9,0-5.6,1.2-7.5,3.2v-2.2c0-0.3-0.3-0.6-0.6-0.6h-2.3c-0.3,0-0.6,0.3-0.6,0.6v21.4
	c0,0.3,0.3,0.6,0.6,0.6h2.3c0.3,0,0.6-0.3,0.6-0.6V33.3c1-3.5,4-6,7.5-6c0.4,0,0.8,0,1.2,0.1c0.3,0.1,0.7-0.2,0.7-0.6v-2.1
	c0-0.3-0.2-0.5-0.5-0.6C312.8,24.2,312.3,24.1,311.8,24.1z"/>
<path class="st0" d="M337.7,35.8c0-6.5-5.1-11.7-11.4-11.7c-6.3,0-11.4,5.2-11.4,11.7s5.1,11.7,11.4,11.7c4.4,0,8.2-2.6,10.1-6.3
	c0.2-0.4-0.1-0.8-0.5-0.8h-2.4c-0.2,0-0.4,0.1-0.5,0.3c-1.5,2.2-4,3.7-6.8,3.7c-4.2,0-7.7-3.3-8.1-7.5h16.3h2.7
	c0.3,0,0.6-0.2,0.6-0.5C337.7,36.1,337.7,35.9,337.7,35.8z M326.3,27.3c3.8,0,7,2.7,7.9,6.3h-15.9C319.3,30,322.5,27.3,326.3,27.3z"
	/>
<g>
	<path class="st0" d="M98,44.1c-3.6-0.8-6.4-4.2-6.4-8.3c0-4.1,2.7-7.6,6.4-8.3v-3.3c-5.3,0.8-9.4,5.7-9.4,11.6
		c0,5.9,4.1,10.8,9.4,11.6V44.1z"/>
	<path class="st0" d="M110.2,24.6h-2.3c-0.3,0-0.6,0.3-0.6,0.6v2.6c-1.7-1.9-3.9-3.2-6.4-3.6v3.3c3.6,0.8,6.4,4.2,6.4,8.3
		c0,4.1-2.7,7.6-6.4,8.3v3.3c2.5-0.4,4.7-1.7,6.4-3.6v2.6c0,0.3,0.3,0.6,0.6,0.6h2.3c0.3,0,0.6-0.3,0.6-0.6V25.1
		C110.8,24.8,110.5,24.6,110.2,24.6z"/>
</g>
<g>
	<path class="st0" d="M234.1,44.1c-3.6-0.8-6.4-4.2-6.4-8.3c0-4.1,2.7-7.6,6.4-8.3v-3.3c-5.3,0.8-9.4,5.7-9.4,11.6
		c0,5.9,4.1,10.8,9.4,11.6V44.1z"/>
	<path class="st0" d="M246.3,24.6h-2.3c-0.3,0-0.6,0.3-0.6,0.6v2.6c-1.7-1.9-3.9-3.2-6.4-3.6v3.3c3.6,0.8,6.4,4.2,6.4,8.3
		c0,4.1-2.7,7.6-6.4,8.3v3.3c2.5-0.4,4.7-1.7,6.4-3.6v2.6c0,0.3,0.3,0.6,0.6,0.6h2.3c0.3,0,0.6-0.3,0.6-0.6V25.1
		C246.9,24.8,246.6,24.6,246.3,24.6z"/>
</g>
<g>
	<path class="st1" d="M27.4,53.9C15.8,53,6.6,43.3,6.6,31.4S15.8,9.8,27.4,8.9V5.3C13.8,6.2,3,17.6,3,31.4s10.8,25.2,24.4,26.1V53.9
		z"/>
	<path class="st1" d="M31,5.3v3.6c11.6,0.9,20.8,10.7,20.8,22.5S42.6,53,31,53.9v3.6c13.6-0.9,24.4-12.3,24.4-26.1S44.6,6.2,31,5.3z
		"/>
</g>
<path class="st0" d="M23.4,42.1L23.4,42.1c-1.3,0-2.4-1.1-2.4-2.4v-5.8c0-1.3,1.1-2.4,2.4-2.4h0c1.3,0,2.4,1.1,2.4,2.4v5.8
	C25.8,41,24.7,42.1,23.4,42.1z"/>
<path class="st0" d="M35,42.1L35,42.1c-1.3,0-2.4-1.1-2.4-2.4v-5.8c0-1.3,1.1-2.4,2.4-2.4h0c1.3,0,2.4,1.1,2.4,2.4v5.8
	C37.5,41,36.4,42.1,35,42.1z"/>
</svg>
