<?xml version="1.0" encoding="utf-8"?>
<!-- Generator: Adobe Illustrator 25.0.1, SVG Export Plug-In . SVG Version: 6.00 Build 0)  -->
<svg version="1.1" id="Layer_1" xmlns="http://www.w3.org/2000/svg" xmlns:xlink="http://www.w3.org/1999/xlink" x="0px" y="0px"
	 viewBox="0 0 60 60" style="enable-background:new 0 0 60 60;" xml:space="preserve">
<style type="text/css">
	.st0{fill:#FFFFFF;}
	.st1{fill-rule:evenodd;clip-rule:evenodd;fill:#FFFFFF;}
</style>
<g>
	<path class="st0" d="M28.1,54.7C15.4,53.7,5.3,43,5.3,30S15.4,6.3,28.1,5.3v-4C13.2,2.4,1.4,14.8,1.4,30s11.8,27.6,26.7,28.6V54.7z
		"/>
	<path class="st0" d="M32.1,1.3v4C44.8,6.3,54.9,17,54.9,30S44.8,53.7,32.1,54.7v4C47,57.6,58.8,45.1,58.8,30S47,2.4,32.1,1.3z"/>
</g>
<path class="st1" d="M23.8,41.7h-0.1c-1.4,0-2.6-1.2-2.6-2.6v-6.5c0-1.4,1.2-2.6,2.6-2.6h0.1c1.4,0,2.6,1.2,2.6,2.6v6.5
	C26.4,40.5,25.2,41.7,23.8,41.7z"/>
<path class="st1" d="M36.6,41.7h-0.1c-1.4,0-2.6-1.2-2.6-2.6v-6.5c0-1.4,1.2-2.6,2.6-2.6h0.1c1.4,0,2.6,1.2,2.6,2.6v6.5
	C39.2,40.5,38,41.7,36.6,41.7z"/>
</svg>
